<svg width="535" height="243" viewBox="0 0 535 243" fill="none" xmlns="http://www.w3.org/2000/svg">
<g clip-path="url(#clip0_226_301)">
<path d="M310.378 91.9336C309.599 91.0377 290.985 70 267.494 70C244.003 70 225.389 91.0377 224.611 91.9336L223.469 93.2393L224.611 94.545C225.178 95.1949 235.162 106.472 249.583 112.597V108.194C239.453 103.474 231.725 96.1903 228.844 93.2393C233.259 88.7074 249.038 73.9815 267.494 73.9815C285.95 73.9815 301.724 88.7191 306.15 93.2452C301.729 97.7771 285.95 112.509 267.494 112.509C264.209 112.509 261.018 112.035 257.95 111.238V101.794C260.398 104.235 263.77 105.746 267.494 105.746C274.954 105.746 281.02 99.68 281.02 92.2205C281.02 84.761 274.948 78.695 267.494 78.695C260.04 78.695 253.969 84.761 253.969 92.2205C253.969 92.2205 253.933 114.23 253.945 114.236C258.19 115.618 262.74 116.49 267.494 116.49C290.985 116.49 309.599 95.4467 310.378 94.5509L311.519 93.2452L310.378 91.9395V91.9336ZM267.494 82.6765C272.758 82.6765 277.038 86.9567 277.038 92.2205C277.038 97.4843 272.752 101.764 267.494 101.764C262.236 101.764 257.95 97.4843 257.95 92.2205C257.95 86.9567 262.23 82.6765 267.494 82.6765Z" fill="white"/>
</g>
<g clip-path="url(#clip1_226_301)">
<path d="M73.7 172.353C72.4667 172.353 71.5433 172.017 70.93 171.343C70.31 170.67 70 169.663 70 168.323V161.463H70.98V168.113C70.98 169.213 71.2067 170.033 71.66 170.573C72.1067 171.113 72.7867 171.383 73.7 171.383C74.6067 171.383 75.2867 171.113 75.74 170.573C76.1867 170.033 76.41 169.213 76.41 168.113V161.463H77.4V168.323C77.4 169.663 77.09 170.67 76.47 171.343C75.85 172.017 74.9267 172.353 73.7 172.353ZM82.87 172.153H81.89V161.463H82.87L88.61 170.473V161.463H89.59V172.153H88.61L82.87 163.153V172.153ZM97.34 172.153H96.57L92.09 161.463H93.21L96.96 170.663L100.71 161.463H101.82L97.34 172.153ZM110.8 172.153H105.42V161.463H110.8V162.333H106.41V166.363H110.65V167.233H106.41V171.283H110.8V172.153ZM115.83 172.153H114.85V161.463H115.83V172.153ZM125.94 172.153H120.48V161.463H121.47V171.283H125.94V172.153ZM139.44 172.153H134.06V161.463H139.44V162.333H135.04V166.363H139.28V167.233H135.04V171.283H139.44V172.153ZM148.1 172.353C147.36 172.353 146.67 172.213 146.03 171.933C145.397 171.647 144.84 171.25 144.36 170.743C143.887 170.237 143.517 169.65 143.25 168.983C142.983 168.31 142.85 167.587 142.85 166.813C142.85 166.1 142.967 165.413 143.2 164.753C143.44 164.087 143.787 163.493 144.24 162.973C144.7 162.453 145.26 162.04 145.92 161.733C146.587 161.427 147.34 161.273 148.18 161.273C148.733 161.273 149.257 161.343 149.75 161.483C150.237 161.617 150.687 161.807 151.1 162.053C151.513 162.3 151.873 162.59 152.18 162.923L151.67 163.673C151.263 163.213 150.753 162.843 150.14 162.563C149.527 162.283 148.87 162.143 148.17 162.143C147.497 162.143 146.893 162.27 146.36 162.523C145.833 162.77 145.387 163.11 145.02 163.543C144.653 163.983 144.377 164.48 144.19 165.033C143.997 165.587 143.9 166.17 143.9 166.783C143.9 167.443 144.007 168.057 144.22 168.623C144.433 169.19 144.733 169.687 145.12 170.113C145.5 170.54 145.947 170.87 146.46 171.103C146.973 171.337 147.527 171.453 148.12 171.453C148.6 171.453 149.07 171.373 149.53 171.213C149.997 171.053 150.413 170.823 150.78 170.523C151.147 170.223 151.44 169.863 151.66 169.443C151.88 169.023 151.99 168.55 151.99 168.023V167.653H148.05V166.853H153V167.803C153 168.557 152.857 169.22 152.57 169.793C152.283 170.36 151.903 170.833 151.43 171.213C150.957 171.593 150.43 171.877 149.85 172.063C149.27 172.257 148.687 172.353 148.1 172.353ZM159.28 172.153H158.3V167.523L154.63 161.463H155.81L158.79 166.473L161.77 161.463H162.96L159.28 167.523V172.153ZM167.47 172.153H166.49V161.463H169.26C169.96 161.463 170.563 161.587 171.07 161.833C171.583 162.073 171.977 162.417 172.25 162.863C172.53 163.31 172.67 163.85 172.67 164.483C172.67 165.11 172.53 165.66 172.25 166.133C171.977 166.607 171.583 166.973 171.07 167.233C170.563 167.493 169.96 167.623 169.26 167.623H167.47V172.153ZM167.47 162.273V166.793H169.03C169.563 166.793 170.027 166.7 170.42 166.513C170.813 166.327 171.12 166.063 171.34 165.723C171.553 165.383 171.66 164.98 171.66 164.513C171.66 164.033 171.553 163.627 171.34 163.293C171.12 162.96 170.813 162.707 170.42 162.533C170.027 162.36 169.563 162.273 169.03 162.273H167.47ZM179.12 172.153H178.14V162.363H174.88V161.463H182.39V162.363H179.12V172.153ZM186 163.823L185.78 163.633C185.853 163.547 185.92 163.44 185.98 163.313C186.04 163.193 186.09 163.06 186.13 162.913C186.17 162.767 186.193 162.623 186.2 162.483C186.053 162.457 185.93 162.39 185.83 162.283C185.737 162.17 185.69 162.037 185.69 161.883C185.69 161.703 185.747 161.557 185.86 161.443C185.98 161.33 186.133 161.273 186.32 161.273C186.513 161.273 186.673 161.337 186.8 161.463C186.92 161.59 186.98 161.773 186.98 162.013C186.98 162.32 186.887 162.643 186.7 162.983C186.513 163.33 186.28 163.61 186 163.823ZM193.93 172.353C193.377 172.353 192.89 172.27 192.47 172.103C192.05 171.937 191.697 171.737 191.41 171.503C191.117 171.27 190.883 171.04 190.71 170.813C190.53 170.593 190.407 170.427 190.34 170.313L190.9 169.583C190.98 169.703 191.1 169.867 191.26 170.073C191.413 170.28 191.613 170.487 191.86 170.693C192.107 170.907 192.403 171.083 192.75 171.223C193.097 171.37 193.497 171.443 193.95 171.443C194.377 171.443 194.77 171.367 195.13 171.213C195.483 171.053 195.77 170.82 195.99 170.513C196.203 170.207 196.31 169.827 196.31 169.373C196.31 169 196.237 168.68 196.09 168.413C195.937 168.147 195.73 167.92 195.47 167.733C195.203 167.547 194.903 167.383 194.57 167.243C194.23 167.097 193.873 166.953 193.5 166.813C193.24 166.713 192.97 166.597 192.69 166.463C192.403 166.323 192.137 166.153 191.89 165.953C191.65 165.747 191.453 165.497 191.3 165.203C191.147 164.91 191.07 164.557 191.07 164.143C191.07 163.75 191.143 163.383 191.29 163.043C191.437 162.697 191.64 162.39 191.9 162.123C192.167 161.857 192.483 161.65 192.85 161.503C193.217 161.35 193.62 161.273 194.06 161.273C194.487 161.273 194.88 161.343 195.24 161.483C195.6 161.623 195.913 161.8 196.18 162.013C196.453 162.227 196.663 162.447 196.81 162.673L196.3 163.353C196.18 163.16 196.013 162.97 195.8 162.783C195.58 162.603 195.327 162.457 195.04 162.343C194.747 162.23 194.423 162.173 194.07 162.173C193.63 162.173 193.257 162.267 192.95 162.453C192.637 162.647 192.4 162.893 192.24 163.193C192.08 163.493 192 163.81 192 164.143C192 164.443 192.063 164.7 192.19 164.913C192.317 165.12 192.483 165.297 192.69 165.443C192.897 165.59 193.123 165.713 193.37 165.813C193.623 165.92 193.873 166.02 194.12 166.113C194.54 166.267 194.943 166.43 195.33 166.603C195.717 166.777 196.06 166.983 196.36 167.223C196.66 167.463 196.9 167.757 197.08 168.103C197.26 168.443 197.35 168.857 197.35 169.343C197.35 169.983 197.197 170.527 196.89 170.973C196.59 171.427 196.183 171.77 195.67 172.003C195.157 172.237 194.577 172.353 193.93 172.353ZM206.14 172.153H205.16L206.55 161.463H207.59L210.73 169.823L213.87 161.463H214.92L216.3 172.153H215.32L214.13 163.303L211.08 171.493H210.38L207.33 163.303L206.14 172.153ZM220.36 172.153H219.3L223.51 161.463H224.42L228.62 172.153H227.56L226.26 168.743H221.67L220.36 172.153ZM223.96 162.763L222 167.873H225.92L223.96 162.763ZM233.85 172.353C232.903 172.353 232.087 172.023 231.4 171.363L231.79 170.543C232.357 171.123 233.013 171.413 233.76 171.413C234.487 171.413 235.053 171.19 235.46 170.743C235.86 170.297 236.06 169.663 236.06 168.843V161.463H237.04V169.143C237.04 170.157 236.76 170.943 236.2 171.503C235.64 172.07 234.857 172.353 233.85 172.353ZM246.96 172.153H241.58V161.463H246.96V162.333H242.56V166.363H246.8V167.233H242.56V171.283H246.96V172.153ZM253.67 172.353C253.117 172.353 252.633 172.27 252.22 172.103C251.8 171.937 251.443 171.737 251.15 171.503C250.857 171.27 250.623 171.04 250.45 170.813C250.277 170.593 250.157 170.427 250.09 170.313L250.65 169.583C250.73 169.703 250.847 169.867 251 170.073C251.16 170.28 251.363 170.487 251.61 170.693C251.857 170.907 252.15 171.083 252.49 171.223C252.837 171.37 253.237 171.443 253.69 171.443C254.123 171.443 254.517 171.367 254.87 171.213C255.23 171.053 255.517 170.82 255.73 170.513C255.943 170.207 256.05 169.827 256.05 169.373C256.05 169 255.977 168.68 255.83 168.413C255.683 168.147 255.477 167.92 255.21 167.733C254.95 167.547 254.65 167.383 254.31 167.243C253.97 167.097 253.613 166.953 253.24 166.813C252.987 166.713 252.717 166.597 252.43 166.463C252.15 166.323 251.887 166.153 251.64 165.953C251.393 165.747 251.193 165.497 251.04 165.203C250.887 164.91 250.81 164.557 250.81 164.143C250.81 163.75 250.883 163.383 251.03 163.043C251.177 162.697 251.383 162.39 251.65 162.123C251.91 161.857 252.223 161.65 252.59 161.503C252.957 161.35 253.363 161.273 253.81 161.273C254.237 161.273 254.63 161.343 254.99 161.483C255.343 161.623 255.657 161.8 255.93 162.013C256.197 162.227 256.403 162.447 256.55 162.673L256.05 163.353C255.93 163.16 255.76 162.97 255.54 162.783C255.327 162.603 255.073 162.457 254.78 162.343C254.493 162.23 254.17 162.173 253.81 162.173C253.37 162.173 252.997 162.267 252.69 162.453C252.383 162.647 252.15 162.893 251.99 163.193C251.83 163.493 251.75 163.81 251.75 164.143C251.75 164.443 251.813 164.7 251.94 164.913C252.06 165.12 252.227 165.297 252.44 165.443C252.647 165.59 252.873 165.713 253.12 165.813C253.367 165.92 253.617 166.02 253.87 166.113C254.283 166.267 254.683 166.43 255.07 166.603C255.457 166.777 255.803 166.983 256.11 167.223C256.41 167.463 256.65 167.757 256.83 168.103C257.003 168.443 257.09 168.857 257.09 169.343C257.09 169.983 256.94 170.527 256.64 170.973C256.333 171.427 255.923 171.77 255.41 172.003C254.897 172.237 254.317 172.353 253.67 172.353ZM263.62 172.153H262.64V162.363H259.38V161.463H266.89V162.363H263.62V172.153ZM274.05 172.153H273.07V167.523L269.4 161.463H270.58L273.56 166.473L276.54 161.463H277.73L274.05 167.523V172.153ZM287.97 172.153H286.86L283.69 161.463H284.78L287.46 170.863L290.58 161.463H291.35L294.49 170.863L297.15 161.463H298.24L295.07 172.153H293.96L290.97 163.403L287.97 172.153ZM302.92 172.153H301.93V161.463H302.92V172.153ZM310.17 172.153H309.18V162.363H305.93V161.463H313.44V162.363H310.17V172.153ZM318.04 172.153H317.06V161.463H318.04V166.363H323.87V161.463H324.85V172.153H323.87V167.233H318.04V172.153ZM334.98 172.153H333.99V161.463H336.76C337.46 161.463 338.067 161.587 338.58 161.833C339.087 162.073 339.48 162.417 339.76 162.863C340.04 163.31 340.18 163.85 340.18 164.483C340.18 165.11 340.04 165.66 339.76 166.133C339.48 166.607 339.087 166.973 338.58 167.233C338.067 167.493 337.46 167.623 336.76 167.623H334.98V172.153ZM334.98 162.273V166.793H336.53C337.063 166.793 337.53 166.7 337.93 166.513C338.323 166.327 338.627 166.063 338.84 165.723C339.06 165.383 339.17 164.98 339.17 164.513C339.17 164.033 339.06 163.627 338.84 163.293C338.627 162.96 338.323 162.707 337.93 162.533C337.53 162.36 337.063 162.273 336.53 162.273H334.98ZM345.01 172.153H344.02V161.463H345.01V166.363H350.84V161.463H351.82V172.153H350.84V167.233H345.01V172.153ZM356.48 172.153H355.42L359.63 161.463H360.54L364.75 172.153H363.68L362.38 168.743H357.79L356.48 172.153ZM360.08 162.763L358.12 167.873H362.05L360.08 162.763ZM369.34 172.153H368.36V161.463H371.13C371.83 161.463 372.433 161.587 372.94 161.833C373.453 162.073 373.847 162.417 374.12 162.863C374.4 163.317 374.54 163.857 374.54 164.483C374.54 165.057 374.423 165.563 374.19 166.003C373.957 166.443 373.623 166.797 373.19 167.063C372.763 167.33 372.253 167.497 371.66 167.563L375.21 172.153H373.96L370.56 167.653H369.34V172.153ZM369.34 162.273V166.793H370.9C371.44 166.793 371.907 166.7 372.3 166.513C372.693 166.327 372.997 166.063 373.21 165.723C373.423 165.383 373.53 164.98 373.53 164.513C373.53 163.813 373.297 163.263 372.83 162.863C372.363 162.47 371.72 162.273 370.9 162.273H369.34ZM378.59 172.153H377.53L381.74 161.463H382.65L386.86 172.153H385.79L384.49 168.743H379.9L378.59 172.153ZM382.19 162.763L380.23 167.873H384.16L382.19 162.763ZM395.2 172.353C394.453 172.353 393.753 172.213 393.1 171.933C392.453 171.647 391.883 171.25 391.39 170.743C390.897 170.237 390.51 169.647 390.23 168.973C389.95 168.3 389.81 167.58 389.81 166.813C389.81 166.04 389.95 165.32 390.23 164.653C390.51 163.987 390.897 163.397 391.39 162.883C391.883 162.377 392.453 161.983 393.1 161.703C393.753 161.417 394.453 161.273 395.2 161.273C395.947 161.273 396.647 161.417 397.3 161.703C397.953 161.983 398.523 162.377 399.01 162.883C399.503 163.397 399.89 163.987 400.17 164.653C400.45 165.32 400.59 166.04 400.59 166.813C400.59 167.58 400.45 168.3 400.17 168.973C399.89 169.647 399.503 170.237 399.01 170.743C398.523 171.25 397.953 171.647 397.3 171.933C396.647 172.213 395.947 172.353 395.2 172.353ZM395.2 171.403C395.807 171.403 396.373 171.287 396.9 171.053C397.42 170.82 397.877 170.493 398.27 170.073C398.67 169.66 398.98 169.173 399.2 168.613C399.42 168.06 399.53 167.46 399.53 166.813C399.53 166.173 399.42 165.573 399.2 165.013C398.98 164.46 398.67 163.973 398.27 163.553C397.877 163.133 397.42 162.807 396.9 162.573C396.373 162.34 395.807 162.223 395.2 162.223C394.593 162.223 394.027 162.34 393.5 162.573C392.973 162.807 392.517 163.133 392.13 163.553C391.737 163.973 391.427 164.46 391.2 165.013C390.98 165.573 390.87 166.173 390.87 166.813C390.87 167.46 390.98 168.06 391.2 168.613C391.427 169.173 391.737 169.66 392.13 170.073C392.517 170.493 392.973 170.82 393.5 171.053C394.027 171.287 394.593 171.403 395.2 171.403ZM405.57 172.153H404.58V161.463H405.57V166.363H411.4V161.463H412.38V172.153H411.4V167.233H405.57V172.153ZM426.13 172.353C425.39 172.353 424.703 172.213 424.07 171.933C423.43 171.647 422.873 171.25 422.4 170.743C421.92 170.237 421.547 169.65 421.28 168.983C421.013 168.31 420.88 167.587 420.88 166.813C420.88 166.1 420.997 165.413 421.23 164.753C421.47 164.087 421.82 163.493 422.28 162.973C422.733 162.453 423.293 162.04 423.96 161.733C424.62 161.427 425.37 161.273 426.21 161.273C426.763 161.273 427.287 161.343 427.78 161.483C428.273 161.617 428.727 161.807 429.14 162.053C429.547 162.3 429.903 162.59 430.21 162.923L429.7 163.673C429.293 163.213 428.783 162.843 428.17 162.563C427.557 162.283 426.9 162.143 426.2 162.143C425.527 162.143 424.927 162.27 424.4 162.523C423.867 162.77 423.417 163.11 423.05 163.543C422.683 163.983 422.407 164.48 422.22 165.033C422.027 165.587 421.93 166.17 421.93 166.783C421.93 167.443 422.037 168.057 422.25 168.623C422.463 169.19 422.763 169.687 423.15 170.113C423.537 170.54 423.987 170.87 424.5 171.103C425.013 171.337 425.563 171.453 426.15 171.453C426.63 171.453 427.103 171.373 427.57 171.213C428.03 171.053 428.443 170.823 428.81 170.523C429.183 170.223 429.477 169.863 429.69 169.443C429.91 169.023 430.02 168.55 430.02 168.023V167.653H426.08V166.853H431.03V167.803C431.03 168.557 430.887 169.22 430.6 169.793C430.313 170.36 429.933 170.833 429.46 171.213C428.987 171.593 428.46 171.877 427.88 172.063C427.307 172.257 426.723 172.353 426.13 172.353ZM440.4 172.153H434.94V161.463H435.92V171.283H440.4V172.153ZM448.76 172.353C448.013 172.353 447.313 172.213 446.66 171.933C446.007 171.647 445.433 171.25 444.94 170.743C444.447 170.237 444.063 169.647 443.79 168.973C443.51 168.3 443.37 167.58 443.37 166.813C443.37 166.04 443.51 165.32 443.79 164.653C444.063 163.987 444.447 163.397 444.94 162.883C445.433 162.377 446.007 161.983 446.66 161.703C447.313 161.417 448.013 161.273 448.76 161.273C449.507 161.273 450.203 161.417 450.85 161.703C451.503 161.983 452.077 162.377 452.57 162.883C453.063 163.397 453.45 163.987 453.73 164.653C454.003 165.32 454.14 166.04 454.14 166.813C454.14 167.58 454.003 168.3 453.73 168.973C453.45 169.647 453.063 170.237 452.57 170.743C452.077 171.25 451.503 171.647 450.85 171.933C450.203 172.213 449.507 172.353 448.76 172.353ZM448.76 171.403C449.367 171.403 449.93 171.287 450.45 171.053C450.977 170.82 451.437 170.493 451.83 170.073C452.223 169.66 452.53 169.173 452.75 168.613C452.97 168.06 453.08 167.46 453.08 166.813C453.08 166.173 452.97 165.573 452.75 165.013C452.53 164.46 452.223 163.973 451.83 163.553C451.437 163.133 450.977 162.807 450.45 162.573C449.93 162.34 449.367 162.223 448.76 162.223C448.147 162.223 447.58 162.34 447.06 162.573C446.533 162.807 446.073 163.133 445.68 163.553C445.287 163.973 444.98 164.46 444.76 165.013C444.533 165.573 444.42 166.173 444.42 166.813C444.42 167.46 444.533 168.06 444.76 168.613C444.98 169.173 445.287 169.66 445.68 170.073C446.073 170.493 446.533 170.82 447.06 171.053C447.58 171.287 448.147 171.403 448.76 171.403ZM459.12 172.153H458.14V161.463H460.91C461.61 161.463 462.213 161.587 462.72 161.833C463.233 162.073 463.627 162.417 463.9 162.863C464.18 163.317 464.32 163.857 464.32 164.483C464.32 165.057 464.203 165.563 463.97 166.003C463.73 166.443 463.397 166.797 462.97 167.063C462.543 167.33 462.033 167.497 461.44 167.563L464.99 172.153H463.74L460.34 167.653H459.12V172.153ZM459.12 162.273V166.793H460.68C461.22 166.793 461.687 166.7 462.08 166.513C462.473 166.327 462.777 166.063 462.99 165.723C463.203 165.383 463.31 164.98 463.31 164.513C463.31 163.813 463.077 163.263 462.61 162.863C462.143 162.47 461.5 162.273 460.68 162.273H459.12Z" fill="white"/>
</g>
<g clip-path="url(#clip2_226_301)">
<path d="M162.211 150.046H159.381V132.236H164.931C166.091 132.236 167.111 132.436 167.991 132.836C168.878 133.243 169.568 133.833 170.061 134.606C170.561 135.386 170.811 136.346 170.811 137.486C170.811 138.62 170.561 139.596 170.061 140.416C169.568 141.23 168.878 141.86 167.991 142.306C167.111 142.746 166.091 142.966 164.931 142.966H162.211V150.046ZM162.211 134.496V140.676H164.101C164.814 140.676 165.454 140.56 166.021 140.326C166.588 140.1 167.034 139.756 167.361 139.296C167.694 138.843 167.861 138.266 167.861 137.566C167.861 136.866 167.694 136.29 167.361 135.836C167.034 135.383 166.588 135.046 166.021 134.826C165.454 134.606 164.814 134.496 164.101 134.496H162.211ZM177.751 150.046H174.921V132.236H177.751V139.876H185.511V132.236H188.331V150.046H185.511V142.356H177.751V150.046ZM194.971 150.046H191.941L199.031 132.236H201.661L208.761 150.046H205.721L203.971 145.406H196.731L194.971 150.046ZM200.341 136.036L197.691 142.926H203.011L200.341 136.036ZM215.191 150.046H212.361V132.236H217.911C219.104 132.236 220.141 132.443 221.021 132.856C221.908 133.276 222.591 133.88 223.071 134.666C223.544 135.446 223.781 136.386 223.781 137.486C223.781 138.406 223.611 139.226 223.271 139.946C222.931 140.673 222.441 141.273 221.801 141.746C221.168 142.22 220.404 142.55 219.511 142.736L225.371 150.046H221.791L216.451 143.056H215.191V150.046ZM215.191 134.496V140.676H217.081C217.868 140.676 218.541 140.553 219.101 140.306C219.661 140.06 220.091 139.703 220.391 139.236C220.691 138.77 220.841 138.213 220.841 137.566C220.841 136.6 220.511 135.846 219.851 135.306C219.191 134.766 218.268 134.496 217.081 134.496H215.191ZM229.651 150.046H226.611L233.711 132.236H236.331L243.441 150.046H240.391L238.641 145.406H231.411L229.651 150.046ZM235.011 136.036L232.371 142.926H237.681L235.011 136.036ZM254.791 150.396C253.544 150.396 252.378 150.16 251.291 149.686C250.204 149.206 249.251 148.543 248.431 147.696C247.604 146.856 246.961 145.876 246.501 144.756C246.034 143.636 245.801 142.436 245.801 141.156C245.801 139.863 246.034 138.66 246.501 137.546C246.961 136.426 247.604 135.446 248.431 134.606C249.251 133.76 250.204 133.096 251.291 132.616C252.378 132.143 253.544 131.906 254.791 131.906C256.031 131.906 257.194 132.143 258.281 132.616C259.374 133.096 260.331 133.76 261.151 134.606C261.971 135.446 262.611 136.426 263.071 137.546C263.538 138.66 263.771 139.863 263.771 141.156C263.771 142.436 263.538 143.636 263.071 144.756C262.611 145.876 261.971 146.856 261.151 147.696C260.331 148.543 259.374 149.206 258.281 149.686C257.194 150.16 256.031 150.396 254.791 150.396ZM254.791 147.676C255.638 147.676 256.424 147.513 257.151 147.186C257.871 146.853 258.501 146.393 259.041 145.806C259.574 145.22 259.988 144.533 260.281 143.746C260.574 142.953 260.721 142.09 260.721 141.156C260.721 140.216 260.574 139.35 260.281 138.556C259.988 137.77 259.574 137.083 259.041 136.496C258.501 135.91 257.871 135.45 257.151 135.116C256.424 134.79 255.638 134.626 254.791 134.626C253.944 134.626 253.161 134.79 252.441 135.116C251.714 135.45 251.084 135.91 250.551 136.496C250.011 137.083 249.594 137.77 249.301 138.556C249.008 139.35 248.861 140.216 248.861 141.156C248.861 142.09 249.008 142.953 249.301 143.746C249.594 144.533 250.011 145.22 250.551 145.806C251.084 146.393 251.714 146.853 252.441 147.186C253.161 147.513 253.944 147.676 254.791 147.676ZM271.021 150.046H268.191V132.236H271.021V139.876H278.781V132.236H281.601V150.046H278.781V142.356H271.021V150.046ZM300.941 150.396C299.708 150.396 298.561 150.16 297.501 149.686C296.448 149.213 295.521 148.56 294.721 147.726C293.928 146.886 293.311 145.903 292.871 144.776C292.424 143.656 292.201 142.45 292.201 141.156C292.201 139.923 292.408 138.75 292.821 137.636C293.228 136.523 293.821 135.54 294.601 134.686C295.381 133.826 296.321 133.15 297.421 132.656C298.528 132.156 299.771 131.906 301.151 131.906C301.991 131.906 302.811 132.003 303.611 132.196C304.404 132.396 305.158 132.673 305.871 133.026C306.578 133.386 307.214 133.823 307.781 134.336L306.421 136.516C305.774 135.87 304.984 135.36 304.051 134.986C303.111 134.62 302.154 134.436 301.181 134.436C300.234 134.436 299.394 134.606 298.661 134.946C297.928 135.28 297.308 135.753 296.801 136.366C296.294 136.973 295.908 137.673 295.641 138.466C295.381 139.266 295.251 140.123 295.251 141.036C295.251 142.023 295.398 142.926 295.691 143.746C295.984 144.573 296.398 145.29 296.931 145.896C297.458 146.503 298.074 146.97 298.781 147.296C299.488 147.63 300.248 147.796 301.061 147.796C301.721 147.796 302.361 147.686 302.981 147.466C303.601 147.253 304.154 146.943 304.641 146.536C305.134 146.136 305.524 145.66 305.811 145.106C306.098 144.553 306.241 143.94 306.241 143.266V142.876H300.881V140.666H309.121V142.966C309.121 144.12 308.891 145.153 308.431 146.066C307.971 146.98 307.351 147.76 306.571 148.406C305.791 149.046 304.914 149.54 303.941 149.886C302.968 150.226 301.968 150.396 300.941 150.396ZM323.101 150.046H313.461V132.236H316.291V147.566H323.101V150.046ZM334.591 150.396C333.344 150.396 332.178 150.16 331.091 149.686C330.004 149.206 329.051 148.543 328.231 147.696C327.404 146.856 326.761 145.876 326.301 144.756C325.834 143.636 325.601 142.436 325.601 141.156C325.601 139.863 325.834 138.66 326.301 137.546C326.761 136.426 327.404 135.446 328.231 134.606C329.051 133.76 330.004 133.096 331.091 132.616C332.178 132.143 333.344 131.906 334.591 131.906C335.831 131.906 336.994 132.143 338.081 132.616C339.168 133.096 340.124 133.76 340.951 134.606C341.771 135.446 342.411 136.426 342.871 137.546C343.338 138.66 343.571 139.863 343.571 141.156C343.571 142.436 343.338 143.636 342.871 144.756C342.411 145.876 341.771 146.856 340.951 147.696C340.124 148.543 339.168 149.206 338.081 149.686C336.994 150.16 335.831 150.396 334.591 150.396ZM334.591 147.676C335.438 147.676 336.224 147.513 336.951 147.186C337.671 146.853 338.298 146.393 338.831 145.806C339.371 145.22 339.788 144.533 340.081 143.746C340.374 142.953 340.521 142.09 340.521 141.156C340.521 140.216 340.374 139.35 340.081 138.556C339.788 137.77 339.371 137.083 338.831 136.496C338.298 135.91 337.671 135.45 336.951 135.116C336.224 134.79 335.438 134.626 334.591 134.626C333.744 134.626 332.961 134.79 332.241 135.116C331.514 135.45 330.884 135.91 330.351 136.496C329.811 137.083 329.394 137.77 329.101 138.556C328.808 139.35 328.661 140.216 328.661 141.156C328.661 142.09 328.808 142.953 329.101 143.746C329.394 144.533 329.811 145.22 330.351 145.806C330.884 146.393 331.514 146.853 332.241 147.186C332.961 147.513 333.744 147.676 334.591 147.676ZM350.821 150.046H347.991V132.236H353.541C354.734 132.236 355.771 132.443 356.651 132.856C357.531 133.276 358.211 133.88 358.691 134.666C359.171 135.446 359.411 136.386 359.411 137.486C359.411 138.406 359.241 139.226 358.901 139.946C358.561 140.673 358.071 141.273 357.431 141.746C356.791 142.22 356.024 142.55 355.131 142.736L361.001 150.046H357.411L352.081 143.056H350.821V150.046ZM350.821 134.496V140.676H352.711C353.491 140.676 354.161 140.553 354.721 140.306C355.288 140.06 355.721 139.703 356.021 139.236C356.314 138.77 356.461 138.213 356.461 137.566C356.461 136.6 356.134 135.846 355.481 135.306C354.821 134.766 353.898 134.496 352.711 134.496H350.821ZM369.261 150.046H366.441V142.186L360.091 132.236H363.501L367.841 139.286L372.201 132.236H375.611L369.261 142.186V150.046Z" fill="white"/>
</g>
<defs>
<clipPath id="clip0_226_301">
<rect width="88.0506" height="46.4904" fill="white" transform="translate(223.469 70)"/>
</clipPath>
<clipPath id="clip1_226_301">
<rect width="394.99" height="11.08" fill="white" transform="translate(70 161.273)"/>
</clipPath>
<clipPath id="clip2_226_301">
<rect width="216.23" height="18.49" fill="white" transform="translate(159.381 131.906)"/>
</clipPath>
</defs>
</svg>
