
            <svg xmlns="http://www.w3.org/2000/svg">
                <filter id="grayscale">
                    <feColorMatrix type="saturate" values="0"/>
                </filter>
                <g filter="url(#grayscale)">
                    <svg xmlns="http://www.w3.org/2000/svg" viewBox="20.0050048828125 166.32196120621526 534.989990234375 242.35206587365533"> <svg xmlns="http://www.w3.org/2000/svg" xmlns:xlink="http://www.w3.org/1999/xlink" id="Layer_2" viewBox="0 0 150.37998962402344 79.40000915527344" height="46.49044852592211" width="88.05056130766638" y="236.32196120621526" x="243.4747193461668" preserveAspectRatio="xMinYMin" style="overflow: visible;"><linearGradient id="Gradient_59" x1="0" y1="39.7" x2="150.38" y2="39.7" gradientUnits="userSpaceOnUse" style=""><stop offset="0" stop-color="#80d1e8"></stop><stop offset=".5" stop-color="#4dbceb"></stop><stop offset="1" stop-color="#4980c1"></stop></linearGradient><path id="Layer_4" class="cls-1" d="m148.43,37.46c-1.33-1.53-33.12-37.46-73.24-37.46S3.28,35.93,1.95,37.46l-1.95,2.23,1.95,2.23c.97,1.11,18.02,20.37,42.65,30.83v-7.52c-17.3-8.06-30.5-20.5-35.42-25.54C16.72,31.95,43.67,6.8,75.19,6.8s58.46,25.17,66.02,32.9c-7.55,7.74-34.5,32.9-66.02,32.9-5.61,0-11.06-.81-16.3-2.17v-16.13c4.18,4.17,9.94,6.75,16.3,6.75,12.74,0,23.1-10.36,23.1-23.1s-10.37-23.1-23.1-23.1-23.1,10.36-23.1,23.1c0,0-.06,37.59-.04,37.6,7.25,2.36,15.02,3.85,23.14,3.85,40.12,0,71.91-35.94,73.24-37.47l1.95-2.23-1.95-2.23Zm-73.24-15.81c8.99,0,16.3,7.31,16.3,16.3s-7.32,16.3-16.3,16.3-16.3-7.31-16.3-16.3,7.31-16.3,16.3-16.3Z" style="fill: #000000; fill-opacity: 1;"></path></svg> <svg xmlns="http://www.w3.org/2000/svg" y="327.59402715616454" viewBox="1.590000033378601 0.25999999046325684 394.989990234375 11.079999923706055" x="90.0050048828125" height="11.079999923706055" width="394.989990234375" style="overflow: visible;"><g fill="#000000" fill-opacity="1" style=""><path d="M5.29 11.34L5.29 11.34Q3.44 11.34 2.52 10.33Q1.59 9.32 1.59 7.31L1.59 7.31L1.59 0.45L2.57 0.45L2.57 7.10Q2.57 8.75 3.25 9.56Q3.92 10.37 5.29 10.37L5.29 10.37Q6.65 10.37 7.33 9.56Q8.00 8.75 8.00 7.10L8.00 7.10L8.00 0.45L8.99 0.45L8.99 7.31Q8.99 9.32 8.06 10.33Q7.13 11.34 5.29 11.34ZM14.46 11.14L13.48 11.14L13.48 0.45L14.46 0.45L20.20 9.46L20.20 0.45L21.18 0.45L21.18 11.14L20.20 11.14L14.46 2.14L14.46 11.14ZM28.93 11.14L28.16 11.14L23.68 0.45L24.80 0.45L28.55 9.65L32.30 0.45L33.41 0.45L28.93 11.14ZM42.39 11.14L37.01 11.14L37.01 0.45L42.39 0.45L42.39 1.32L38.00 1.32L38.00 5.35L42.24 5.35L42.24 6.22L38.00 6.22L38.00 10.27L42.39 10.27L42.39 11.14ZM47.42 11.14L46.44 11.14L46.44 0.45L47.42 0.45L47.42 11.14ZM57.53 11.14L52.07 11.14L52.07 0.45L53.06 0.45L53.06 10.27L57.53 10.27L57.53 11.14ZM71.03 11.14L65.65 11.14L65.65 0.45L71.03 0.45L71.03 1.32L66.63 1.32L66.63 5.35L70.87 5.35L70.87 6.22L66.63 6.22L66.63 10.27L71.03 10.27L71.03 11.14ZM79.69 11.34L79.69 11.34Q78.58 11.34 77.62 10.92Q76.67 10.49 75.95 9.73Q75.24 8.97 74.84 7.97Q74.44 6.96 74.44 5.80L74.44 5.80Q74.44 4.73 74.79 3.74Q75.15 2.74 75.83 1.96Q76.52 1.18 77.51 0.72Q78.51 0.26 79.77 0.26L79.77 0.26Q80.60 0.26 81.34 0.47Q82.07 0.67 82.69 1.04Q83.31 1.41 83.77 1.91L83.77 1.91L83.26 2.66Q82.65 1.97 81.73 1.55Q80.81 1.13 79.76 1.13L79.76 1.13Q78.75 1.13 77.95 1.51Q77.16 1.88 76.61 2.53Q76.06 3.19 75.78 4.02Q75.49 4.85 75.49 5.77L75.49 5.77Q75.49 6.76 75.81 7.61Q76.13 8.46 76.71 9.10Q77.28 9.74 78.05 10.09Q78.82 10.44 79.71 10.44L79.71 10.44Q80.43 10.44 81.12 10.20Q81.82 9.96 82.37 9.51Q82.92 9.06 83.25 8.43Q83.58 7.80 83.58 7.01L83.58 7.01L83.58 6.64L79.64 6.64L79.64 5.84L84.59 5.84L84.59 6.79Q84.59 7.92 84.16 8.78Q83.73 9.63 83.02 10.20Q82.31 10.77 81.44 11.05Q80.57 11.34 79.69 11.34ZM90.87 11.14L89.89 11.14L89.89 6.51L86.22 0.45L87.40 0.45L90.38 5.46L93.36 0.45L94.55 0.45L90.87 6.51L90.87 11.14ZM99.06 11.14L98.08 11.14L98.08 0.45L100.85 0.45Q101.90 0.45 102.66 0.82Q103.43 1.18 103.84 1.85Q104.26 2.52 104.26 3.47L104.26 3.47Q104.26 4.41 103.84 5.12Q103.43 5.83 102.66 6.22Q101.90 6.61 100.85 6.61L100.85 6.61L99.06 6.61L99.06 11.14ZM99.06 1.26L99.06 5.78L100.62 5.78Q101.42 5.78 102.01 5.50Q102.60 5.22 102.93 4.71Q103.25 4.20 103.25 3.50L103.25 3.50Q103.25 2.78 102.93 2.28Q102.60 1.78 102.01 1.52Q101.42 1.26 100.62 1.26L100.62 1.26L99.06 1.26ZM110.71 11.14L109.73 11.14L109.73 1.35L106.47 1.35L106.47 0.45L113.98 0.45L113.98 1.35L110.71 1.35L110.71 11.14ZM117.59 2.81L117.59 2.81L117.37 2.62Q117.48 2.49 117.57 2.30Q117.66 2.12 117.72 1.90Q117.78 1.68 117.79 1.47L117.79 1.47Q117.57 1.43 117.42 1.27Q117.28 1.10 117.28 0.87L117.28 0.87Q117.28 0.60 117.45 0.43Q117.63 0.26 117.91 0.26L117.91 0.26Q118.20 0.26 118.39 0.45Q118.57 0.64 118.57 1.00L118.57 1.00Q118.57 1.46 118.29 1.97Q118.01 2.49 117.59 2.81ZM125.52 11.34L125.52 11.34Q124.69 11.34 124.06 11.09Q123.43 10.84 123.00 10.49Q122.56 10.14 122.30 9.80Q122.03 9.47 121.93 9.30L121.93 9.30L122.49 8.57Q122.61 8.75 122.85 9.06Q123.08 9.37 123.45 9.68Q123.82 10.00 124.34 10.21Q124.86 10.43 125.54 10.43L125.54 10.43Q126.18 10.43 126.72 10.20Q127.25 9.96 127.58 9.50Q127.90 9.04 127.90 8.36L127.90 8.36Q127.90 7.80 127.68 7.40Q127.45 7.00 127.06 6.72Q126.66 6.44 126.16 6.23Q125.65 6.01 125.09 5.80L125.09 5.80Q124.70 5.65 124.28 5.45Q123.85 5.24 123.48 4.94Q123.12 4.63 122.89 4.19Q122.66 3.75 122.66 3.13L122.66 3.13Q122.66 2.54 122.88 2.03Q123.10 1.51 123.49 1.11Q123.89 0.71 124.44 0.49Q124.99 0.26 125.65 0.26L125.65 0.26Q126.29 0.26 126.83 0.47Q127.37 0.68 127.77 1.00Q128.18 1.32 128.40 1.66L128.40 1.66L127.89 2.34Q127.71 2.05 127.39 1.77Q127.06 1.50 126.63 1.33Q126.19 1.16 125.66 1.16L125.66 1.16Q125.00 1.16 124.54 1.44Q124.07 1.73 123.83 2.18Q123.59 2.63 123.59 3.13L123.59 3.13Q123.59 3.58 123.78 3.90Q123.97 4.21 124.28 4.43Q124.59 4.65 124.96 4.80Q125.34 4.96 125.71 5.10L125.71 5.10Q126.34 5.33 126.92 5.59Q127.50 5.85 127.95 6.21Q128.40 6.57 128.67 7.09Q128.94 7.60 128.94 8.33L128.94 8.33Q128.94 9.29 128.48 9.96Q128.03 10.64 127.26 10.99Q126.49 11.34 125.52 11.34ZM137.73 11.14L136.75 11.14L138.14 0.45L139.18 0.45L142.32 8.81L145.46 0.45L146.51 0.45L147.89 11.14L146.91 11.14L145.72 2.29L142.67 10.48L141.97 10.48L138.92 2.29L137.73 11.14ZM151.95 11.14L150.89 11.14L155.10 0.45L156.01 0.45L160.21 11.14L159.15 11.14L157.85 7.73L153.26 7.73L151.95 11.14ZM155.55 1.75L153.59 6.86L157.51 6.86L155.55 1.75ZM165.44 11.34L165.44 11.34Q164.02 11.34 162.99 10.35L162.99 10.35L163.38 9.53Q164.23 10.40 165.35 10.40L165.35 10.40Q166.44 10.40 167.05 9.73Q167.65 9.06 167.65 7.83L167.65 7.83L167.65 0.45L168.63 0.45L168.63 8.13Q168.63 9.65 167.79 10.49Q166.95 11.34 165.44 11.34ZM178.55 11.14L173.17 11.14L173.17 0.45L178.55 0.45L178.55 1.32L174.15 1.32L174.15 5.35L178.39 5.35L178.39 6.22L174.15 6.22L174.15 10.27L178.55 10.27L178.55 11.14ZM185.26 11.34L185.26 11.34Q184.43 11.34 183.81 11.09Q183.18 10.84 182.74 10.49Q182.30 10.14 182.04 9.80Q181.78 9.47 181.68 9.30L181.68 9.30L182.24 8.57Q182.36 8.75 182.59 9.06Q182.83 9.37 183.20 9.68Q183.57 10.00 184.08 10.21Q184.60 10.43 185.28 10.43L185.28 10.43Q185.93 10.43 186.46 10.20Q187.00 9.96 187.32 9.50Q187.64 9.04 187.64 8.36L187.64 8.36Q187.64 7.80 187.42 7.40Q187.20 7.00 186.80 6.72Q186.41 6.44 185.90 6.23Q185.39 6.01 184.83 5.80L184.83 5.80Q184.45 5.65 184.02 5.45Q183.60 5.24 183.23 4.94Q182.86 4.63 182.63 4.19Q182.40 3.75 182.40 3.13L182.40 3.13Q182.40 2.54 182.62 2.03Q182.84 1.51 183.24 1.11Q183.63 0.71 184.18 0.49Q184.73 0.26 185.40 0.26L185.40 0.26Q186.04 0.26 186.58 0.47Q187.11 0.68 187.52 1.00Q187.92 1.32 188.14 1.66L188.14 1.66L187.64 2.34Q187.46 2.05 187.13 1.77Q186.81 1.50 186.37 1.33Q185.94 1.16 185.40 1.16L185.40 1.16Q184.74 1.16 184.28 1.44Q183.82 1.73 183.58 2.18Q183.34 2.63 183.34 3.13L183.34 3.13Q183.34 3.58 183.53 3.90Q183.71 4.21 184.03 4.43Q184.34 4.65 184.71 4.80Q185.08 4.96 185.46 5.10L185.46 5.10Q186.08 5.33 186.66 5.59Q187.24 5.85 187.70 6.21Q188.15 6.57 188.42 7.09Q188.68 7.60 188.68 8.33L188.68 8.33Q188.68 9.29 188.23 9.96Q187.77 10.64 187.00 10.99Q186.23 11.34 185.26 11.34ZM195.21 11.14L194.23 11.14L194.23 1.35L190.97 1.35L190.97 0.45L198.48 0.45L198.48 1.35L195.21 1.35L195.21 11.14ZM205.64 11.14L204.66 11.14L204.66 6.51L200.99 0.45L202.17 0.45L205.15 5.46L208.13 0.45L209.32 0.45L205.64 6.51L205.64 11.14ZM219.56 11.14L218.45 11.14L215.28 0.45L216.37 0.45L219.05 9.85L222.17 0.45L222.94 0.45L226.08 9.85L228.74 0.45L229.83 0.45L226.66 11.14L225.55 11.14L222.56 2.39L219.56 11.14ZM234.51 11.14L233.52 11.14L233.52 0.45L234.51 0.45L234.51 11.14ZM241.76 11.14L240.77 11.14L240.77 1.35L237.52 1.35L237.52 0.45L245.03 0.45L245.03 1.35L241.76 1.35L241.76 11.14ZM249.63 11.14L248.65 11.14L248.65 0.45L249.63 0.45L249.63 5.35L255.46 5.35L255.46 0.45L256.44 0.45L256.44 11.14L255.46 11.14L255.46 6.22L249.63 6.22L249.63 11.14ZM266.57 11.14L265.58 11.14L265.58 0.45L268.35 0.45Q269.40 0.45 270.17 0.82Q270.93 1.18 271.35 1.85Q271.77 2.52 271.77 3.47L271.77 3.47Q271.77 4.41 271.35 5.12Q270.93 5.83 270.17 6.22Q269.40 6.61 268.35 6.61L268.35 6.61L266.57 6.61L266.57 11.14ZM266.57 1.26L266.57 5.78L268.12 5.78Q268.92 5.78 269.52 5.50Q270.11 5.22 270.43 4.71Q270.76 4.20 270.76 3.50L270.76 3.50Q270.76 2.78 270.43 2.28Q270.11 1.78 269.52 1.52Q268.92 1.26 268.12 1.26L268.12 1.26L266.57 1.26ZM276.60 11.14L275.61 11.14L275.61 0.45L276.60 0.45L276.60 5.35L282.43 5.35L282.43 0.45L283.41 0.45L283.41 11.14L282.43 11.14L282.43 6.22L276.60 6.22L276.60 11.14ZM288.07 11.14L287.01 11.14L291.22 0.45L292.13 0.45L296.34 11.14L295.27 11.14L293.97 7.73L289.38 7.73L288.07 11.14ZM291.67 1.75L289.71 6.86L293.64 6.86L291.67 1.75ZM300.93 11.14L299.95 11.14L299.95 0.45L302.72 0.45Q303.77 0.45 304.53 0.82Q305.30 1.18 305.71 1.85Q306.13 2.53 306.13 3.47L306.13 3.47Q306.13 4.33 305.78 4.99Q305.43 5.65 304.78 6.05Q304.14 6.45 303.25 6.55L303.25 6.55L306.80 11.14L305.55 11.14L302.15 6.64L300.93 6.64L300.93 11.14ZM300.93 1.26L300.93 5.78L302.49 5.78Q303.30 5.78 303.89 5.50Q304.48 5.22 304.80 4.71Q305.12 4.20 305.12 3.50L305.12 3.50Q305.12 2.45 304.42 1.85Q303.72 1.26 302.49 1.26L302.49 1.26L300.93 1.26ZM310.18 11.14L309.12 11.14L313.33 0.45L314.24 0.45L318.45 11.14L317.38 11.14L316.08 7.73L311.49 7.73L310.18 11.14ZM313.78 1.75L311.82 6.86L315.75 6.86L313.78 1.75ZM326.79 11.34L326.79 11.34Q325.67 11.34 324.69 10.92Q323.72 10.49 322.98 9.73Q322.24 8.97 321.82 7.96Q321.40 6.95 321.40 5.80L321.40 5.80Q321.40 4.64 321.82 3.64Q322.24 2.64 322.98 1.87Q323.72 1.11 324.69 0.69Q325.67 0.26 326.79 0.26L326.79 0.26Q327.91 0.26 328.89 0.69Q329.87 1.11 330.60 1.87Q331.34 2.64 331.76 3.64Q332.18 4.64 332.18 5.80L332.18 5.80Q332.18 6.95 331.76 7.96Q331.34 8.97 330.60 9.73Q329.87 10.49 328.89 10.92Q327.91 11.34 326.79 11.34ZM326.79 10.39L326.79 10.39Q327.70 10.39 328.49 10.04Q329.27 9.69 329.86 9.06Q330.46 8.44 330.79 7.60Q331.12 6.77 331.12 5.80L331.12 5.80Q331.12 4.84 330.79 4.00Q330.46 3.17 329.86 2.54Q329.27 1.91 328.49 1.56Q327.70 1.21 326.79 1.21L326.79 1.21Q325.88 1.21 325.09 1.56Q324.30 1.91 323.72 2.54Q323.13 3.17 322.79 4.00Q322.46 4.84 322.46 5.80L322.46 5.80Q322.46 6.77 322.79 7.60Q323.13 8.44 323.72 9.06Q324.30 9.69 325.09 10.04Q325.88 10.39 326.79 10.39ZM337.16 11.14L336.17 11.14L336.17 0.45L337.16 0.45L337.16 5.35L342.99 5.35L342.99 0.45L343.97 0.45L343.97 11.14L342.99 11.14L342.99 6.22L337.16 6.22L337.16 11.14ZM357.72 11.34L357.72 11.34Q356.61 11.34 355.66 10.92Q354.70 10.49 353.99 9.73Q353.27 8.97 352.87 7.97Q352.47 6.96 352.47 5.80L352.47 5.80Q352.47 4.73 352.82 3.74Q353.18 2.74 353.87 1.96Q354.55 1.18 355.55 0.72Q356.54 0.26 357.80 0.26L357.80 0.26Q358.63 0.26 359.37 0.47Q360.11 0.67 360.73 1.04Q361.34 1.41 361.80 1.91L361.80 1.91L361.29 2.66Q360.68 1.97 359.76 1.55Q358.84 1.13 357.79 1.13L357.79 1.13Q356.78 1.13 355.99 1.51Q355.19 1.88 354.64 2.53Q354.09 3.19 353.81 4.02Q353.52 4.85 353.52 5.77L353.52 5.77Q353.52 6.76 353.84 7.61Q354.16 8.46 354.74 9.10Q355.32 9.74 356.09 10.09Q356.86 10.44 357.74 10.44L357.74 10.44Q358.46 10.44 359.16 10.20Q359.85 9.96 360.40 9.51Q360.96 9.06 361.28 8.43Q361.61 7.80 361.61 7.01L361.61 7.01L361.61 6.64L357.67 6.64L357.67 5.84L362.62 5.84L362.62 6.79Q362.62 7.92 362.19 8.78Q361.76 9.63 361.05 10.20Q360.34 10.77 359.47 11.05Q358.61 11.34 357.72 11.34ZM371.99 11.14L366.53 11.14L366.53 0.45L367.51 0.45L367.51 10.27L371.99 10.27L371.99 11.14ZM380.35 11.34L380.35 11.34Q379.23 11.34 378.25 10.92Q377.27 10.49 376.53 9.73Q375.79 8.97 375.38 7.96Q374.96 6.95 374.96 5.80L374.96 5.80Q374.96 4.64 375.38 3.64Q375.79 2.64 376.53 1.87Q377.27 1.11 378.25 0.69Q379.23 0.26 380.35 0.26L380.35 0.26Q381.47 0.26 382.44 0.69Q383.42 1.11 384.16 1.87Q384.90 2.64 385.32 3.64Q385.73 4.64 385.73 5.80L385.73 5.80Q385.73 6.95 385.32 7.96Q384.90 8.97 384.16 9.73Q383.42 10.49 382.44 10.92Q381.47 11.34 380.35 11.34ZM380.35 10.39L380.35 10.39Q381.26 10.39 382.04 10.04Q382.83 9.69 383.42 9.06Q384.01 8.44 384.34 7.60Q384.67 6.77 384.67 5.80L384.67 5.80Q384.67 4.84 384.34 4.00Q384.01 3.17 383.42 2.54Q382.83 1.91 382.04 1.56Q381.26 1.21 380.35 1.21L380.35 1.21Q379.43 1.21 378.65 1.56Q377.86 1.91 377.27 2.54Q376.68 3.17 376.35 4.00Q376.01 4.84 376.01 5.80L376.01 5.80Q376.01 6.77 376.35 7.60Q376.68 8.44 377.27 9.06Q377.86 9.69 378.65 10.04Q379.43 10.39 380.35 10.39ZM390.71 11.14L389.73 11.14L389.73 0.45L392.50 0.45Q393.55 0.45 394.31 0.82Q395.08 1.18 395.49 1.85Q395.91 2.53 395.91 3.47L395.91 3.47Q395.91 4.33 395.56 4.99Q395.20 5.65 394.56 6.05Q393.92 6.45 393.03 6.55L393.03 6.55L396.58 11.14L395.33 11.14L391.93 6.64L390.71 6.64L390.71 11.14ZM390.71 1.26L390.71 5.78L392.27 5.78Q393.08 5.78 393.67 5.50Q394.26 5.22 394.58 4.71Q394.90 4.20 394.90 3.50L394.90 3.50Q394.90 2.45 394.20 1.85Q393.50 1.26 392.27 1.26L392.27 1.26L390.71 1.26Z" transform="translate(0, 0)"></path></g></svg> <svg xmlns="http://www.w3.org/2000/svg" y="298.22656891510195" viewBox="2.5999999046325684 0.4300000071525574 216.22999572753906 18.489999771118164" x="179.38500213623047" height="18.489999771118164" width="216.22999572753906" style="overflow: visible;"><g fill="#000000" fill-opacity="1" style=""><path d="M5.43 18.57L2.60 18.57L2.60 0.76L8.15 0.76Q9.89 0.76 11.21 1.36Q12.54 1.97 13.28 3.13Q14.03 4.30 14.03 6.01L14.03 6.01Q14.03 7.71 13.28 8.94Q12.54 10.16 11.21 10.83Q9.89 11.49 8.15 11.49L8.15 11.49L5.43 11.49L5.43 18.57ZM5.43 3.02L5.43 9.20L7.32 9.20Q8.39 9.20 9.24 8.85Q10.09 8.51 10.58 7.82Q11.08 7.14 11.08 6.09L11.08 6.09Q11.08 5.04 10.58 4.36Q10.09 3.68 9.24 3.35Q8.39 3.02 7.32 3.02L7.32 3.02L5.43 3.02ZM20.97 18.57L18.14 18.57L18.14 0.76L20.97 0.76L20.97 8.40L28.73 8.40L28.73 0.76L31.55 0.76L31.55 18.57L28.73 18.57L28.73 10.88L20.97 10.88L20.97 18.57ZM38.19 18.57L35.16 18.57L42.25 0.76L44.88 0.76L51.98 18.57L48.94 18.57L47.19 13.93L39.95 13.93L38.19 18.57ZM43.56 4.56L40.91 11.45L46.23 11.45L43.56 4.56ZM58.41 18.57L55.58 18.57L55.58 0.76L61.13 0.76Q62.92 0.76 64.24 1.38Q65.57 2.01 66.29 3.19Q67.00 4.36 67.00 6.01L67.00 6.01Q67.00 7.39 66.49 8.47Q65.98 9.56 65.02 10.27Q64.07 10.98 62.73 11.26L62.73 11.26L68.59 18.57L65.01 18.57L59.67 11.58L58.41 11.58L58.41 18.57ZM58.41 3.02L58.41 9.20L60.30 9.20Q61.48 9.20 62.32 8.83Q63.16 8.46 63.61 7.76Q64.06 7.06 64.06 6.09L64.06 6.09Q64.06 4.64 63.07 3.83Q62.08 3.02 60.30 3.02L60.30 3.02L58.41 3.02ZM72.87 18.57L69.83 18.57L76.93 0.76L79.55 0.76L86.66 18.57L83.61 18.57L81.86 13.93L74.63 13.93L72.87 18.57ZM78.23 4.56L75.59 11.45L80.90 11.45L78.23 4.56ZM98.01 18.92L98.01 18.92Q96.14 18.92 94.51 18.21Q92.88 17.49 91.65 16.22Q90.41 14.96 89.72 13.28Q89.02 11.60 89.02 9.68L89.02 9.68Q89.02 7.74 89.72 6.07Q90.41 4.39 91.65 3.13Q92.88 1.86 94.51 1.14Q96.14 0.43 98.01 0.43L98.01 0.43Q99.87 0.43 101.50 1.14Q103.14 1.86 104.37 3.13Q105.60 4.39 106.29 6.07Q106.99 7.74 106.99 9.68L106.99 9.68Q106.99 11.60 106.29 13.28Q105.60 14.96 104.37 16.22Q103.14 17.49 101.50 18.21Q99.87 18.92 98.01 18.92ZM98.01 16.20L98.01 16.20Q99.28 16.20 100.37 15.71Q101.45 15.21 102.26 14.33Q103.06 13.45 103.50 12.27Q103.94 11.08 103.94 9.68L103.94 9.68Q103.94 8.27 103.50 7.08Q103.06 5.90 102.26 5.02Q101.45 4.14 100.37 3.64Q99.28 3.15 98.01 3.15L98.01 3.15Q96.74 3.15 95.66 3.64Q94.57 4.14 93.77 5.02Q92.96 5.90 92.52 7.08Q92.08 8.27 92.08 9.68L92.08 9.68Q92.08 11.08 92.52 12.27Q92.96 13.45 93.77 14.33Q94.57 15.21 95.66 15.71Q96.74 16.20 98.01 16.20ZM114.24 18.57L111.41 18.57L111.41 0.76L114.24 0.76L114.24 8.40L122.00 8.40L122.00 0.76L124.82 0.76L124.82 18.57L122.00 18.57L122.00 10.88L114.24 10.88L114.24 18.57ZM144.16 18.92L144.16 18.92Q142.31 18.92 140.72 18.21Q139.14 17.50 137.94 16.25Q136.75 14.99 136.09 13.30Q135.42 11.62 135.42 9.68L135.42 9.68Q135.42 7.83 136.04 6.16Q136.65 4.49 137.82 3.21Q138.99 1.92 140.64 1.18Q142.30 0.43 144.37 0.43L144.37 0.43Q145.63 0.43 146.83 0.72Q148.02 1.02 149.09 1.55Q150.15 2.09 151.00 2.86L151.00 2.86L149.64 5.04Q148.67 4.07 147.27 3.51Q145.86 2.96 144.40 2.96L144.40 2.96Q142.98 2.96 141.88 3.47Q140.78 3.97 140.02 4.89Q139.26 5.80 138.86 6.99Q138.47 8.19 138.47 9.56L138.47 9.56Q138.47 11.04 138.91 12.27Q139.35 13.51 140.15 14.42Q140.94 15.33 142.00 15.82Q143.06 16.32 144.28 16.32L144.28 16.32Q145.27 16.32 146.20 15.99Q147.13 15.67 147.86 15.06Q148.60 14.46 149.03 13.63Q149.46 12.80 149.46 11.79L149.46 11.79L149.46 11.40L144.10 11.40L144.10 9.19L152.34 9.19L152.34 11.49Q152.34 13.22 151.65 14.59Q150.96 15.96 149.79 16.93Q148.62 17.89 147.16 18.41Q145.70 18.92 144.16 18.92ZM166.32 18.57L156.68 18.57L156.68 0.76L159.51 0.76L159.51 16.09L166.32 16.09L166.32 18.57ZM177.81 18.92L177.81 18.92Q175.94 18.92 174.31 18.21Q172.68 17.49 171.45 16.22Q170.21 14.96 169.52 13.28Q168.82 11.60 168.82 9.68L168.82 9.68Q168.82 7.74 169.52 6.07Q170.21 4.39 171.45 3.13Q172.68 1.86 174.31 1.14Q175.94 0.43 177.81 0.43L177.81 0.43Q179.67 0.43 181.30 1.14Q182.93 1.86 184.17 3.13Q185.40 4.39 186.09 6.07Q186.79 7.74 186.79 9.68L186.79 9.68Q186.79 11.60 186.09 13.28Q185.40 14.96 184.17 16.22Q182.93 17.49 181.30 18.21Q179.67 18.92 177.81 18.92ZM177.81 16.20L177.81 16.20Q179.08 16.20 180.17 15.71Q181.25 15.21 182.05 14.33Q182.86 13.45 183.30 12.27Q183.74 11.08 183.74 9.68L183.74 9.68Q183.74 8.27 183.30 7.08Q182.86 5.90 182.05 5.02Q181.25 4.14 180.17 3.64Q179.08 3.15 177.81 3.15L177.81 3.15Q176.54 3.15 175.46 3.64Q174.37 4.14 173.57 5.02Q172.76 5.90 172.32 7.08Q171.88 8.27 171.88 9.68L171.88 9.68Q171.88 11.08 172.32 12.27Q172.76 13.45 173.57 14.33Q174.37 15.21 175.46 15.71Q176.54 16.20 177.81 16.20ZM194.04 18.57L191.21 18.57L191.21 0.76L196.76 0.76Q198.55 0.76 199.87 1.38Q201.19 2.01 201.91 3.19Q202.63 4.36 202.63 6.01L202.63 6.01Q202.63 7.39 202.12 8.47Q201.61 9.56 200.65 10.27Q199.69 10.98 198.35 11.26L198.35 11.26L204.22 18.57L200.63 18.57L195.30 11.58L194.04 11.58L194.04 18.57ZM194.04 3.02L194.04 9.20L195.93 9.20Q197.10 9.20 197.94 8.83Q198.79 8.46 199.24 7.76Q199.68 7.06 199.68 6.09L199.68 6.09Q199.68 4.64 198.70 3.83Q197.71 3.02 195.93 3.02L195.93 3.02L194.04 3.02ZM212.48 18.57L209.66 18.57L209.66 10.71L203.31 0.76L206.72 0.76L211.06 7.81L215.42 0.76L218.83 0.76L212.48 10.71L212.48 18.57Z" transform="translate(0, 0)"></path></g></svg></svg>
                </g>
            </svg>
        