
            <svg xmlns="http://www.w3.org/2000/svg">
                <filter id="grayscale">
                    <feColorMatrix type="saturate" values="0"/>
                </filter>
                <g filter="url(#grayscale)">
                    <svg xmlns="http://www.w3.org/2000/svg" viewBox="20.0050048828125 166.32196120621526 534.989990234375 242.35206587365533"> <svg xmlns="http://www.w3.org/2000/svg" xmlns:xlink="http://www.w3.org/1999/xlink" id="Layer_2" viewBox="0 0 150.37998962402344 79.40000915527344" height="46.49044852592211" width="88.05056130766638" y="236.32196120621526" x="243.4747193461668" preserveAspectRatio="xMinYMin" style="overflow: visible;"><linearGradient id="Gradient_59" x1="0" y1="39.7" x2="150.38" y2="39.7" gradientUnits="userSpaceOnUse" style=""><stop offset="0" stop-color="#80d1e8"></stop><stop offset=".5" stop-color="#4dbceb"></stop><stop offset="1" stop-color="#4980c1"></stop></linearGradient><path id="Layer_4" class="cls-1" d="m148.43,37.46c-1.33-1.53-33.12-37.46-73.24-37.46S3.28,35.93,1.95,37.46l-1.95,2.23,1.95,2.23c.97,1.11,18.02,20.37,42.65,30.83v-7.52c-17.3-8.06-30.5-20.5-35.42-25.54C16.72,31.95,43.67,6.8,75.19,6.8s58.46,25.17,66.02,32.9c-7.55,7.74-34.5,32.9-66.02,32.9-5.61,0-11.06-.81-16.3-2.17v-16.13c4.18,4.17,9.94,6.75,16.3,6.75,12.74,0,23.1-10.36,23.1-23.1s-10.37-23.1-23.1-23.1-23.1,10.36-23.1,23.1c0,0-.06,37.59-.04,37.6,7.25,2.36,15.02,3.85,23.14,3.85,40.12,0,71.91-35.94,73.24-37.47l1.95-2.23-1.95-2.23Zm-73.24-15.81c8.99,0,16.3,7.31,16.3,16.3s-7.32,16.3-16.3,16.3-16.3-7.31-16.3-16.3,7.31-16.3,16.3-16.3Z" style="fill: #fff; fill-opacity: 1;"></path></svg>  <svg xmlns="http://www.w3.org/2000/svg" y="298.22656891510195" viewBox="2.5999999046325684 0.4300000071525574 216.22999572753906 18.489999771118164" x="179.38500213623047" height="18.489999771118164" width="216.22999572753906" style="overflow: visible;"><g fill="#fff" fill-opacity="1" style=""><path d="M5.43 18.57L2.60 18.57L2.60 0.76L8.15 0.76Q9.89 0.76 11.21 1.36Q12.54 1.97 13.28 3.13Q14.03 4.30 14.03 6.01L14.03 6.01Q14.03 7.71 13.28 8.94Q12.54 10.16 11.21 10.83Q9.89 11.49 8.15 11.49L8.15 11.49L5.43 11.49L5.43 18.57ZM5.43 3.02L5.43 9.20L7.32 9.20Q8.39 9.20 9.24 8.85Q10.09 8.51 10.58 7.82Q11.08 7.14 11.08 6.09L11.08 6.09Q11.08 5.04 10.58 4.36Q10.09 3.68 9.24 3.35Q8.39 3.02 7.32 3.02L7.32 3.02L5.43 3.02ZM20.97 18.57L18.14 18.57L18.14 0.76L20.97 0.76L20.97 8.40L28.73 8.40L28.73 0.76L31.55 0.76L31.55 18.57L28.73 18.57L28.73 10.88L20.97 10.88L20.97 18.57ZM38.19 18.57L35.16 18.57L42.25 0.76L44.88 0.76L51.98 18.57L48.94 18.57L47.19 13.93L39.95 13.93L38.19 18.57ZM43.56 4.56L40.91 11.45L46.23 11.45L43.56 4.56ZM58.41 18.57L55.58 18.57L55.58 0.76L61.13 0.76Q62.92 0.76 64.24 1.38Q65.57 2.01 66.29 3.19Q67.00 4.36 67.00 6.01L67.00 6.01Q67.00 7.39 66.49 8.47Q65.98 9.56 65.02 10.27Q64.07 10.98 62.73 11.26L62.73 11.26L68.59 18.57L65.01 18.57L59.67 11.58L58.41 11.58L58.41 18.57ZM58.41 3.02L58.41 9.20L60.30 9.20Q61.48 9.20 62.32 8.83Q63.16 8.46 63.61 7.76Q64.06 7.06 64.06 6.09L64.06 6.09Q64.06 4.64 63.07 3.83Q62.08 3.02 60.30 3.02L60.30 3.02L58.41 3.02ZM72.87 18.57L69.83 18.57L76.93 0.76L79.55 0.76L86.66 18.57L83.61 18.57L81.86 13.93L74.63 13.93L72.87 18.57ZM78.23 4.56L75.59 11.45L80.90 11.45L78.23 4.56ZM98.01 18.92L98.01 18.92Q96.14 18.92 94.51 18.21Q92.88 17.49 91.65 16.22Q90.41 14.96 89.72 13.28Q89.02 11.60 89.02 9.68L89.02 9.68Q89.02 7.74 89.72 6.07Q90.41 4.39 91.65 3.13Q92.88 1.86 94.51 1.14Q96.14 0.43 98.01 0.43L98.01 0.43Q99.87 0.43 101.50 1.14Q103.14 1.86 104.37 3.13Q105.60 4.39 106.29 6.07Q106.99 7.74 106.99 9.68L106.99 9.68Q106.99 11.60 106.29 13.28Q105.60 14.96 104.37 16.22Q103.14 17.49 101.50 18.21Q99.87 18.92 98.01 18.92ZM98.01 16.20L98.01 16.20Q99.28 16.20 100.37 15.71Q101.45 15.21 102.26 14.33Q103.06 13.45 103.50 12.27Q103.94 11.08 103.94 9.68L103.94 9.68Q103.94 8.27 103.50 7.08Q103.06 5.90 102.26 5.02Q101.45 4.14 100.37 3.64Q99.28 3.15 98.01 3.15L98.01 3.15Q96.74 3.15 95.66 3.64Q94.57 4.14 93.77 5.02Q92.96 5.90 92.52 7.08Q92.08 8.27 92.08 9.68L92.08 9.68Q92.08 11.08 92.52 12.27Q92.96 13.45 93.77 14.33Q94.57 15.21 95.66 15.71Q96.74 16.20 98.01 16.20ZM114.24 18.57L111.41 18.57L111.41 0.76L114.24 0.76L114.24 8.40L122.00 8.40L122.00 0.76L124.82 0.76L124.82 18.57L122.00 18.57L122.00 10.88L114.24 10.88L114.24 18.57ZM144.16 18.92L144.16 18.92Q142.31 18.92 140.72 18.21Q139.14 17.50 137.94 16.25Q136.75 14.99 136.09 13.30Q135.42 11.62 135.42 9.68L135.42 9.68Q135.42 7.83 136.04 6.16Q136.65 4.49 137.82 3.21Q138.99 1.92 140.64 1.18Q142.30 0.43 144.37 0.43L144.37 0.43Q145.63 0.43 146.83 0.72Q148.02 1.02 149.09 1.55Q150.15 2.09 151.00 2.86L151.00 2.86L149.64 5.04Q148.67 4.07 147.27 3.51Q145.86 2.96 144.40 2.96L144.40 2.96Q142.98 2.96 141.88 3.47Q140.78 3.97 140.02 4.89Q139.26 5.80 138.86 6.99Q138.47 8.19 138.47 9.56L138.47 9.56Q138.47 11.04 138.91 12.27Q139.35 13.51 140.15 14.42Q140.94 15.33 142.00 15.82Q143.06 16.32 144.28 16.32L144.28 16.32Q145.27 16.32 146.20 15.99Q147.13 15.67 147.86 15.06Q148.60 14.46 149.03 13.63Q149.46 12.80 149.46 11.79L149.46 11.79L149.46 11.40L144.10 11.40L144.10 9.19L152.34 9.19L152.34 11.49Q152.34 13.22 151.65 14.59Q150.96 15.96 149.79 16.93Q148.62 17.89 147.16 18.41Q145.70 18.92 144.16 18.92ZM166.32 18.57L156.68 18.57L156.68 0.76L159.51 0.76L159.51 16.09L166.32 16.09L166.32 18.57ZM177.81 18.92L177.81 18.92Q175.94 18.92 174.31 18.21Q172.68 17.49 171.45 16.22Q170.21 14.96 169.52 13.28Q168.82 11.60 168.82 9.68L168.82 9.68Q168.82 7.74 169.52 6.07Q170.21 4.39 171.45 3.13Q172.68 1.86 174.31 1.14Q175.94 0.43 177.81 0.43L177.81 0.43Q179.67 0.43 181.30 1.14Q182.93 1.86 184.17 3.13Q185.40 4.39 186.09 6.07Q186.79 7.74 186.79 9.68L186.79 9.68Q186.79 11.60 186.09 13.28Q185.40 14.96 184.17 16.22Q182.93 17.49 181.30 18.21Q179.67 18.92 177.81 18.92ZM177.81 16.20L177.81 16.20Q179.08 16.20 180.17 15.71Q181.25 15.21 182.05 14.33Q182.86 13.45 183.30 12.27Q183.74 11.08 183.74 9.68L183.74 9.68Q183.74 8.27 183.30 7.08Q182.86 5.90 182.05 5.02Q181.25 4.14 180.17 3.64Q179.08 3.15 177.81 3.15L177.81 3.15Q176.54 3.15 175.46 3.64Q174.37 4.14 173.57 5.02Q172.76 5.90 172.32 7.08Q171.88 8.27 171.88 9.68L171.88 9.68Q171.88 11.08 172.32 12.27Q172.76 13.45 173.57 14.33Q174.37 15.21 175.46 15.71Q176.54 16.20 177.81 16.20ZM194.04 18.57L191.21 18.57L191.21 0.76L196.76 0.76Q198.55 0.76 199.87 1.38Q201.19 2.01 201.91 3.19Q202.63 4.36 202.63 6.01L202.63 6.01Q202.63 7.39 202.12 8.47Q201.61 9.56 200.65 10.27Q199.69 10.98 198.35 11.26L198.35 11.26L204.22 18.57L200.63 18.57L195.30 11.58L194.04 11.58L194.04 18.57ZM194.04 3.02L194.04 9.20L195.93 9.20Q197.10 9.20 197.94 8.83Q198.79 8.46 199.24 7.76Q199.68 7.06 199.68 6.09L199.68 6.09Q199.68 4.64 198.70 3.83Q197.71 3.02 195.93 3.02L195.93 3.02L194.04 3.02ZM212.48 18.57L209.66 18.57L209.66 10.71L203.31 0.76L206.72 0.76L211.06 7.81L215.42 0.76L218.83 0.76L212.48 10.71L212.48 18.57Z" transform="translate(0, 0)"></path></g></svg></svg>
                </g>
            </svg>
        